<?xml version="1.0" encoding="UTF-8" standalone="no"?>
<!-- Created with Inkscape (http://www.inkscape.org/) -->

<svg
   xmlns:osb="http://www.openswatchbook.org/uri/2009/osb"
   xmlns:dc="http://purl.org/dc/elements/1.1/"
   xmlns:cc="http://creativecommons.org/ns#"
   xmlns:rdf="http://www.w3.org/1999/02/22-rdf-syntax-ns#"
   xmlns:svg="http://www.w3.org/2000/svg"
   xmlns="http://www.w3.org/2000/svg"
   xmlns:sodipodi="http://sodipodi.sourceforge.net/DTD/sodipodi-0.dtd"
   xmlns:inkscape="http://www.inkscape.org/namespaces/inkscape"
   width="505.43085"
   height="505.43085"
   viewBox="0 0 133.72858 133.72858"
   version="1.1"
   id="svg8"
   inkscape:version="0.92.3 (2405546, 2018-03-11)"
   sodipodi:docname="OpBLogoNoBkg.svg"
   style="enable-background:new"
   inkscape:export-filename="C:\Users\fred\Desktop\OBLogoNoBkg.png"
   inkscape:export-xdpi="96"
   inkscape:export-ydpi="96">
  <defs
     id="defs2">
    <inkscape:path-effect
       effect="spiro"
       id="path-effect5162"
       is_visible="true" />
    <inkscape:perspective
       sodipodi:type="inkscape:persp3d"
       inkscape:vp_x="14.925214 : 168.85256 : 1"
       inkscape:vp_y="0 : 999.99998 : 0"
       inkscape:vp_z="210.00001 : 148.5 : 1"
       inkscape:persp3d-origin="105 : 98.999998 : 1"
       id="perspective5134" />
    <linearGradient
       id="linearGradient4613"
       osb:paint="solid">
      <stop
         style="stop-color:#000000;stop-opacity:1;"
         offset="0"
         id="stop4611" />
    </linearGradient>
    <clipPath
       clipPathUnits="userSpaceOnUse"
       id="clipPath3884">
      <g
         inkscape:label="Clip"
         id="use3886">
        <g
           inkscape:transform-center-y="-3.9009155"
           inkscape:transform-center-x="-0.16960408"
           transform="translate(-7.1233974,-24.762286)"
           id="g3915">
          <g
             id="g3913">
            <g
               id="g3911">
              <g
                 id="g3909">
                <circle
                   r="21.030983"
                   cy="134.85789"
                   cx="-40.705128"
                   id="circle3907"
                   style="fill:#ffff00;stroke-width:0.26458332" />
              </g>
            </g>
          </g>
        </g>
        <g
           style="fill:#ff0000"
           inkscape:transform-center-y="-20.861369"
           inkscape:transform-center-x="-16.960469"
           transform="translate(17.299679,5.088141)"
           id="g3921">
          <g
             style="fill:#ff0000"
             id="g3919">
            <rect
               y="83.637291"
               x="-52.238247"
               height="41.383549"
               width="22.72703"
               id="rect3917"
               style="fill:#ff0000;stroke-width:0.26458332" />
          </g>
        </g>
      </g>
    </clipPath>
  </defs>
  <sodipodi:namedview
     id="base"
     pagecolor="#ffffff"
     bordercolor="#666666"
     borderopacity="1.0"
     inkscape:pageopacity="0.0"
     inkscape:pageshadow="2"
     inkscape:zoom="0.63"
     inkscape:cx="208.05226"
     inkscape:cy="375.97039"
     inkscape:document-units="mm"
     inkscape:current-layer="layer2"
     showgrid="false"
     inkscape:window-width="1366"
     inkscape:window-height="705"
     inkscape:window-x="-8"
     inkscape:window-y="-8"
     inkscape:window-maximized="1"
     inkscape:snap-global="false"
     units="px"
     fit-margin-top="0"
     fit-margin-left="0"
     fit-margin-right="0"
     fit-margin-bottom="0"
     inkscape:pagecheckerboard="true" />
  <metadata
     id="metadata5">
    <rdf:RDF>
      <cc:Work
         rdf:about="">
        <dc:format>image/svg+xml</dc:format>
        <dc:type
           rdf:resource="http://purl.org/dc/dcmitype/StillImage" />
        <dc:title></dc:title>
      </cc:Work>
    </rdf:RDF>
  </metadata>
  <g
     inkscape:groupmode="layer"
     id="layer2"
     inkscape:label="fond"
     style="display:inline;opacity:1"
     transform="translate(-28.973702,-71.981934)">
    <path
       style="opacity:1;fill:#000000;fill-opacity:1;stroke:#ffffff;stroke-width:1.06186724;stroke-linecap:round;stroke-linejoin:round;stroke-miterlimit:4;stroke-dasharray:none;stroke-opacity:1;paint-order:normal"
       d=""
       id="path5542"
       inkscape:connector-curvature="0"
       transform="scale(0.26458333)" />
    <path
       style="opacity:1;fill:#000000;fill-opacity:1;stroke:#ffffff;stroke-width:1.06186724;stroke-linecap:round;stroke-linejoin:round;stroke-miterlimit:4;stroke-dasharray:none;stroke-opacity:1;paint-order:normal"
       d=""
       id="path5544"
       inkscape:connector-curvature="0"
       transform="scale(0.26458333)" />
    <path
       style="opacity:1;fill:#000000;fill-opacity:1;stroke:#ffffff;stroke-width:1.06186724;stroke-linecap:round;stroke-linejoin:round;stroke-miterlimit:4;stroke-dasharray:none;stroke-opacity:1;paint-order:normal"
       d=""
       id="path5548"
       inkscape:connector-curvature="0"
       transform="scale(0.26458333)" />
    <path
       style="opacity:1;fill:#000000;fill-opacity:1;stroke:#ffffff;stroke-width:1.06186724;stroke-linecap:round;stroke-linejoin:round;stroke-miterlimit:4;stroke-dasharray:none;stroke-opacity:1;paint-order:normal"
       d=""
       id="path5550"
       inkscape:connector-curvature="0"
       transform="scale(0.26458333)" />
  </g>
  <g
     inkscape:groupmode="layer"
     id="layer4"
     inkscape:label="RondFond"
     style="display:inline;opacity:0"
     transform="translate(-28.973702,-71.981934)" />
  <g
     inkscape:label="Boite"
     inkscape:groupmode="layer"
     id="layer1"
     style="display:inline;opacity:1"
     transform="translate(-28.973702,-71.981934)">
    <path
       style="fill:#ffffff;stroke-width:0.45850915"
       d="m 40.122774,199.95062 c -2.456379,-1.66245 -2.433359,-1.39708 -2.433359,-28.05274 V 147.1533 l 1.063937,-1.52549 c 0.935331,-1.3411 3.309263,-2.72904 3.7367,-2.18469 0.0849,0.10812 3.813504,7.77518 8.285782,17.0379 8.612246,17.83717 9.060279,18.52783 12.619802,19.45397 2.222576,0.57828 4.308213,0.0653 9.860375,-2.42539 l 3.614967,-1.62165 v 1.75926 c 0,3.29684 -0.773868,3.17576 20.297317,3.17576 h 18.831345 l 0.72612,-1.0017 c 0.55971,-0.77213 0.72612,-2.24689 0.72612,-6.43496 0,-7.84211 0.53564,-7.43019 -9.70522,-7.46344 l -8.252994,-0.0268 3.117074,-1.47028 c 3.9364,-1.85674 4.53244,-2.34427 5.57588,-4.56067 1.30513,-2.77231 1.07552,-4.08063 -1.74034,-9.91609 -3.54648,-7.34958 -3.49348,-7.07792 -1.34714,-6.90354 l 1.76617,0.1435 3.18452,6.76059 c 3.28775,6.97975 3.9254,9.79915 2.71179,11.99028 -0.4861,0.87762 -0.29159,0.88709 15.59253,0.7591 15.40743,-0.12415 16.13897,-0.16873 17.37212,-1.05887 3.03099,-2.18786 3.19672,-2.72839 3.36557,-10.9767 l 0.15477,-7.56066 1.12726,0.20822 c 0.62,0.11452 1.7623,0.90707 2.53845,1.76122 l 1.41117,1.55301 -0.12775,25.69948 -0.12775,25.69949 -1.52332,1.31494 -1.52331,1.31494 H 96.09174 c -49.02096,0 -55.041421,-0.0757 -55.968966,-0.70342 z m 5.343601,-43.24044 c -1.573858,-3.34649 -3.02297,-6.08453 -3.220249,-6.08453 -0.491019,0 -0.432417,4.33251 0.08793,6.50036 0.550815,2.2948 1.795164,3.89908 3.784569,4.87927 0.879672,0.43342 1.736635,0.78835 1.90436,0.78874 0.167721,3.5e-4 -0.982749,-2.73734 -2.556607,-6.08384 z"
       id="path75"
       inkscape:connector-curvature="0" />
    <path
       style="fill:#ffffff;stroke-width:0.45850915"
       d="m 105.44708,139.24532 c -0.27135,-0.55775 -3.6748,-7.70708 -7.563218,-15.8874 -3.88842,-8.18031 -7.635744,-15.45603 -8.327386,-16.16825 -0.691649,-0.71223 -1.932979,-1.5742 -2.758514,-1.9155 -3.410942,-1.41019 -4.306692,-1.1244 -24.308798,7.75601 -10.37699,4.6071 -19.160487,8.48528 -19.518876,8.61816 -0.553311,0.20516 -0.631367,-2.94541 -0.517398,-20.88365 0.127864,-20.124801 0.17792,-21.195094 1.056927,-22.599638 0.507486,-0.810902 1.780691,-1.875696 2.82934,-2.366208 1.861839,-0.870887 3.018265,-0.891607 49.220363,-0.881939 45.85379,0.0096 47.37539,0.03694 49.31188,0.886189 1.52542,0.668973 2.21272,1.333077 2.90506,2.807017 0.86864,1.849288 0.90732,3.190113 0.91714,31.790009 l 0.0103,29.85929 h -21.38172 -21.38169 z"
       id="path77"
       inkscape:connector-curvature="0" />
    <g
       id="g5349"
       transform="matrix(0.60710642,0,0,0.60710642,67.469655,-15.519016)"
       inkscape:label="g5349">
      <g
         id="g5390"
         transform="matrix(1.365917,0,0,1.365917,56.885552,-88.864478)" />
    </g>
  </g>
  <g
     inkscape:groupmode="layer"
     id="layer3"
     inkscape:label="Couvercle"
     transform="translate(-28.973702,-71.981934)">
    <rect
       style="fill:#ffffff;fill-opacity:1;fill-rule:evenodd;stroke-width:0.35763711"
       id="rect4618"
       width="106.5026"
       height="87.887711"
       x="42.306213"
       y="74.772079"
       rx="6.8754911"
       ry="6.6434669" />
  </g>
  <g
     inkscape:groupmode="layer"
     id="layer8"
     inkscape:label="MirroirNegatif"
     style="display:inline"
     transform="translate(-28.973702,-71.981934)" />
  <g
     inkscape:label="Mirroir"
     id="g4682"
     inkscape:groupmode="layer"
     style="display:inline;opacity:1"
     transform="translate(-28.973702,-71.981934)">
    <rect
       transform="matrix(0.91410502,-0.40547752,0.42913334,0.90324115,0,0)"
       ry="6.684433"
       rx="6.8356705"
       y="130.26402"
       x="-25.02076"
       height="64.394928"
       width="58.895699"
       id="rect4680"
       style="fill:#000000;fill-opacity:1;fill-rule:evenodd;stroke:#000000;stroke-width:2.70385671;stroke-miterlimit:4;stroke-dasharray:none;stroke-opacity:1" />
    <g
       id="g121"
       transform="matrix(1.375101,0,0,1.3286961,-36.413109,-45.05917)">
      <g
         transform="translate(4.7625002)"
         id="g62">
        <rect
           transform="matrix(0.90863049,-0.41760104,0.42403442,0.90564607,0,0)"
           ry="4.3798666"
           rx="4.3605108"
           y="140.03827"
           x="-11.244764"
           height="42.193737"
           width="37.569885"
           id="rect4680-5"
           style="fill:#000018;fill-opacity:1;fill-rule:evenodd;stroke:#ffffff;stroke-width:2.24802828;stroke-miterlimit:4;stroke-dasharray:none;stroke-opacity:1" />
      </g>
    </g>
  </g>
  <g
     inkscape:groupmode="layer"
     id="layer9"
     inkscape:label="MirroirRond"
     transform="translate(-28.973702,-71.981934)">
    <ellipse
       style="fill:#ffffff;stroke-width:0.47077143"
       id="path65"
       cx="-8.9879217"
       cy="163.38837"
       rx="20.094938"
       ry="23.031332"
       transform="matrix(0.87814193,-0.4784002,0.50398157,0.86371441,0,0)" />
  </g>
  <g
     inkscape:groupmode="layer"
     id="layer10"
     inkscape:label="Brush"
     style="display:inline"
     transform="matrix(0.60710642,0,0,0.60710642,38.495953,-87.50095)">
    <g
       style="display:inline;opacity:1"
       id="g5369"
       transform="matrix(1.6274405,0.90609122,-0.93773656,1.5725201,548.19635,-23.16099)">
      <ellipse
         ry="4.833106"
         rx="6.6857162"
         cy="217.79793"
         cx="-146.83092"
         id="path83-8"
         style="display:inline;opacity:1;fill:#ffffff;stroke-width:0.15593432" />
      <path
         sodipodi:nodetypes="cccccccccccscccccscccccccc"
         inkscape:connector-curvature="0"
         id="path5150-6"
         d="m -136.48847,207.78945 c -10.03519,-10e-6 -18.17042,5.5832 -18.17059,12.47047 0.006,0.81972 0.1297,1.63697 0.36934,2.44004 l 2.5e-4,5.2e-4 c 0.26637,0.90887 0.67966,1.79464 1.23205,2.64065 l 6.73745,18.17275 0.21267,0.01 c -0.073,0.16414 -0.0925,0.34963 -0.0467,0.5598 l 1.41383,6.48572 c 0.29107,1.33537 0.84582,5.2168 1.3847,7.07397 -0.15904,0.0633 -0.21789,-1.05861 -0.21789,-1.05861 -0.26218,0.38163 -0.0831,2.71021 -0.0831,10.92206 v 9.42564 l 0.48382,0.49311 0.48383,0.49336 4.90006,-0.0588 c 3.8025,-0.0456 4.97141,-0.11919 5.21918,-0.3291 0.28887,-0.24472 0.31938,-1.18952 0.31938,-9.91684 0,-4.76247 0.28646,-9.10241 0.21007,-10.46037 1.04119,-2.42634 1.47354,-5.29174 1.79052,-6.5844 l 1.59033,-6.48572 c 0.0349,-0.14213 0.0341,-0.27207 0.004,-0.39172 l 10.00123,-20.46451 -0.16923,-0.10491 c 0.32912,-0.93757 0.49861,-1.89828 0.50517,-2.86267 -1.2e-4,-6.88727 -8.13539,-12.4702 -18.17058,-12.4702 z"
         style="display:inline;opacity:1;fill:#000009;fill-opacity:1;stroke:#000000;stroke-width:1.60239708;stroke-linecap:butt;stroke-linejoin:round;stroke-miterlimit:4;stroke-dasharray:none;stroke-opacity:1;paint-order:normal" />
      <ellipse
         ry="4.3573141"
         rx="5.6915121"
         cy="218.38954"
         cx="-145.45479"
         id="path83"
         style="fill:#ffffff;stroke-width:0.13660853" />
      <path
         inkscape:connector-curvature="0"
         id="path5150"
         d="m -136.6504,209.38341 a 16.187327,11.237054 0 0 0 -16.18743,11.23694 16.187327,11.237054 0 0 0 0.32896,2.19875 l 2.6e-4,4.9e-4 a 16.187327,11.237054 0 0 0 1.0975,2.37933 l 5.85562,12.69259 16.63595,0.0866 8.15726,-14.68392 -0.15082,-0.0945 a 16.187327,11.237054 0 0 0 0.45009,-2.57934 16.187327,11.237054 0 0 0 -16.18739,-11.23694 z"
         style="fill:#000100;fill-opacity:1;stroke:#ffffff;stroke-width:1.43567407;stroke-linecap:butt;stroke-linejoin:round;stroke-miterlimit:4;stroke-dasharray:none;stroke-opacity:1;paint-order:normal" />
      <path
         sodipodi:nodetypes="sssssssss"
         inkscape:connector-curvature="0"
         id="rect5155"
         d="m -139.30083,240.46821 c 0,0 2.66677,-0.24988 4.71478,0.0889 0,0 5.3334,-0.21469 4.91034,1.5303 l -1.41685,5.84413 c -0.42305,1.74499 -1.40425,3.24674 -3.14854,3.24674 h -6.61197 c -1.7443,0 -2.77016,-1.49088 -3.14855,-3.24674 l -1.25942,-5.84413 c -0.37839,-1.75587 4.21591,-1.61923 5.96021,-1.61923 z"
         style="fill:#000000;fill-opacity:1;stroke:#ffffff;stroke-width:1.31970298;stroke-linecap:butt;stroke-linejoin:round;stroke-miterlimit:4;stroke-dasharray:none;stroke-opacity:1;paint-order:normal" />
      <path
         inkscape:connector-curvature="0"
         id="path5172"
         d="M -137.34883,236.90749 V 214.49846"
         style="fill:none;stroke:#fffffe;stroke-width:2.13318348;stroke-linecap:round;stroke-linejoin:miter;stroke-miterlimit:4;stroke-dasharray:none;stroke-opacity:1" />
      <path
         inkscape:connector-curvature="0"
         id="path5172-8"
         d="m -130.83864,237.02005 5.08219,-17.89576"
         style="display:inline;opacity:0.42399998;fill:none;stroke:#ffffff;stroke-width:2.14012861;stroke-linecap:round;stroke-linejoin:miter;stroke-miterlimit:4;stroke-dasharray:none;stroke-opacity:1" />
      <path
         inkscape:connector-curvature="0"
         id="path5172-8-6"
         d="m -148.61504,218.70085 5.00938,18.10343"
         style="display:inline;opacity:0.42399998;fill:none;stroke:#ffffff;stroke-width:2.13806343;stroke-linecap:round;stroke-linejoin:miter;stroke-miterlimit:4;stroke-dasharray:none;stroke-opacity:1" />
      <path
         inkscape:connector-curvature="0"
         id="path5172-7"
         d="m -134.23153,236.879 2.91328,-20.21784"
         style="display:inline;opacity:0.42399998;fill:#000000;fill-opacity:1;stroke:#fffffe;stroke-width:2.16181397;stroke-linecap:round;stroke-linejoin:miter;stroke-miterlimit:4;stroke-dasharray:none;stroke-opacity:1" />
      <path
         inkscape:connector-curvature="0"
         id="path5172-7-4"
         d="m -143.58353,216.56531 2.91328,20.21784"
         style="display:inline;opacity:0.42399998;fill:#000000;stroke:#ffffff;stroke-width:2.16181397;stroke-linecap:round;stroke-linejoin:miter;stroke-miterlimit:4;stroke-dasharray:none;stroke-opacity:1" />
      <rect
         y="255.01547"
         x="-142.09166"
         height="16.628933"
         width="8.1923275"
         id="rect5252"
         style="fill:#000000;fill-opacity:1;stroke:#030005;stroke-width:2.13806343;stroke-linecap:round;stroke-linejoin:round;stroke-miterlimit:4;stroke-dasharray:none;stroke-opacity:1;paint-order:normal" />
      <path
         inkscape:connector-curvature="0"
         id="path5258"
         d="m -133.05314,254.25454 c 0.11593,0.22338 0.17828,3.38356 0.17828,9.03564 0,7.86403 -0.0271,8.71534 -0.28443,8.93586 -0.22073,0.18915 -1.26212,0.25559 -4.64962,0.29668 l -4.36519,0.0529 -0.43101,-0.44446 -0.43102,-0.44446 v -8.49315 c 0,-7.39953 0.0345,-8.54397 0.26811,-8.88785 0.26576,-0.39126 0.30869,-0.39471 4.90235,-0.39471 4.40548,0 4.64305,0.0169 4.81253,0.34351 z"
         style="fill:#000000;fill-opacity:0.40784314;stroke:#ffffff;stroke-width:1.3945688;stroke-linecap:round;stroke-linejoin:round;stroke-miterlimit:4;stroke-dasharray:none;stroke-opacity:1;paint-order:normal" />
      <path
         transform="scale(0.26458333)"
         inkscape:connector-curvature="0"
         id="path5319"
         d="m -529.04827,901.74968 c -20.72918,-0.15511 -22.03918,-0.19852 -22.64889,-0.75042 -0.35593,-0.32218 -5.50608,-11.11055 -11.44477,-23.97415 -5.93869,-12.86361 -11.76734,-25.29231 -12.95255,-27.61935 -4.37409,-8.58808 -5.21196,-16.18811 -2.7314,-24.77545 5.27673,-18.26723 26.01499,-32.17143 52.59525,-35.26306 5.47942,-0.63733 17.74343,-0.45181 22.67531,0.34302 26.03571,4.19594 44.97086,17.89151 49.78309,36.00753 0.7078,2.66456 0.82851,3.80054 0.84146,7.91853 0.011,3.48839 -0.1339,5.40683 -0.52789,6.99104 -0.29865,1.20084 -0.54312,2.64315 -0.54328,3.20513 -3.2e-4,1.42037 -30.9834,57.25252 -32.09054,57.82795 -0.56637,0.29437 -3.35109,0.3777 -10.85789,0.32489 -5.55289,-0.0391 -19.99694,-0.14511 -32.0979,-0.23566 z m 54.93474,-31.20672 c 8.06473,-14.51705 14.66316,-26.60936 14.66316,-26.8718 0,-0.26244 0.31046,-1.61802 0.68993,-3.01241 0.9814,-3.60628 0.97986,-10.11664 -0.003,-13.75319 -0.81545,-3.0164 -2.68389,-7.05298 -4.50801,-9.73911 -7.61688,-11.21635 -23.00586,-19.64913 -40.72994,-22.31899 -4.86001,-0.73208 -15.78649,-0.98948 -20.72667,-0.48825 -15.92157,1.61539 -29.9494,7.41678 -39.17229,16.20019 -6.76448,6.44216 -10.32304,13.2604 -11.11487,21.29624 -0.45476,4.61513 1.1613,11.39043 3.82673,16.04351 0.75736,1.32211 6.18237,12.82452 12.05559,25.5609 l 10.67859,23.15705 h 12.77133 12.77134 v -43.44541 c 0,-47.72428 -0.1238,-44.75893 1.91258,-45.81199 1.60691,-0.83096 3.06928,-0.62893 4.42225,0.61095 l 1.19722,1.09715 v 43.69452 43.69452 l 5.92949,0.17098 c 3.26121,0.094 9.24693,0.20222 13.30158,0.24039 l 7.3721,0.0694 z"
         style="fill:#ffffff;fill-opacity:0.40784314;stroke:#ffffff;stroke-width:3.09630537;stroke-linecap:round;stroke-linejoin:round;stroke-miterlimit:4;stroke-dasharray:none;stroke-opacity:1;paint-order:normal" />
      <path
         transform="scale(0.26458333)"
         inkscape:connector-curvature="0"
         id="path5321"
         d="m -535.25166,951.29369 c -4.54469,-1.12611 -8.04895,-4.52275 -10.04063,-9.73226 -1.39199,-3.64094 -6.30847,-26.82643 -6.01747,-28.37761 0.49868,-2.65821 3.45317,-4.68169 8.35065,-5.71924 3.36829,-0.71359 20.90369,-1.4154 27.73951,-1.11021 17.69982,0.79022 20.06421,1.07046 23.65078,2.80317 2.21113,1.06821 3.49565,2.58956 3.78423,4.48194 0.11229,0.73632 -0.77268,4.9393 -2.74534,13.03843 -3.27641,13.45189 -3.46881,14.10291 -5.08059,17.19172 -2.09789,4.0204 -5.39681,6.6896 -9.28832,7.51529 -2.45034,0.51991 -28.19875,0.44252 -30.35282,-0.0912 z m 30.35038,-4.73301 c 2.55543,-0.76562 5.03994,-3.6727 6.32095,-7.39601 1.31211,-3.81372 6.2037,-24.71048 5.89783,-25.19539 -0.76008,-1.20497 -5.73953,-2.18001 -12.44095,-2.43609 -2.29167,-0.0876 -6.44904,-0.30832 -9.2386,-0.49055 -2.78956,-0.18223 -5.16937,-0.27454 -5.28846,-0.20515 -0.11909,0.0694 -4.25499,0.22112 -9.19089,0.33716 -9.4338,0.22179 -13.99875,0.71721 -16.40142,1.78003 -1.00314,0.44373 -1.38704,0.80059 -1.38704,1.28932 0,0.37168 1.15288,6.04085 2.56196,12.59815 2.83905,13.21188 3.52805,15.19319 6.18782,17.7939 2.34237,2.29034 2.19713,2.27169 17.8156,2.28749 9.76829,0.01 14.2794,-0.0981 15.1632,-0.36286 z"
         style="fill:#ffffff;fill-opacity:0.40784314;stroke:#ffffff;stroke-width:3.09630537;stroke-linecap:round;stroke-linejoin:round;stroke-miterlimit:4;stroke-dasharray:none;stroke-opacity:1;paint-order:normal" />
      <path
         transform="scale(0.26458333)"
         inkscape:connector-curvature="0"
         id="path5323"
         d="m -535.73242,894.71609 c 0,-0.16415 -2.4612,-17.36367 -5.46932,-38.22116 -3.12737,-21.68434 -5.39016,-38.3447 -5.28447,-38.90823 0.59099,-3.15099 5.30346,-3.99591 7.08889,-1.27099 0.35453,0.54108 2.19321,12.46304 6.09142,39.49653 3.07098,21.29684 5.58421,38.8297 5.58495,38.96191 7.4e-4,0.13221 -1.80154,0.24038 -4.00506,0.24038 -2.25978,0 -4.00641,-0.13011 -4.00641,-0.29844 z"
         style="fill:#ffffff;fill-opacity:1;stroke:#ffffff;stroke-width:3.09630537;stroke-linecap:round;stroke-linejoin:round;stroke-miterlimit:4;stroke-dasharray:none;stroke-opacity:1;paint-order:normal" />
      <path
         transform="scale(0.26458333)"
         inkscape:connector-curvature="0"
         id="path5325"
         d="m -556.18786,861.1203 c -5.15349,-18.64182 -9.36599,-34.35191 -9.36112,-34.9113 0.0113,-1.29772 1.28052,-2.83042 2.74371,-3.31331 1.35415,-0.44691 2.92174,-0.0182 3.95505,1.08174 0.52664,0.56059 3.01593,9.1279 10.30354,35.46143 5.28502,19.09724 9.60913,34.91428 9.60913,35.14896 0,0.33213 -0.87334,0.42671 -3.94017,0.42671 h -3.94016 z"
         style="fill:#ffffff;fill-opacity:1;stroke:#ffffff;stroke-width:3.09630537;stroke-linecap:round;stroke-linejoin:round;stroke-miterlimit:4;stroke-dasharray:none;stroke-opacity:1;paint-order:normal" />
      <path
         transform="scale(0.26458333)"
         inkscape:connector-curvature="0"
         id="path5327"
         d="m -511.21855,894.29338 c 0.0919,-0.39664 2.61871,-17.78594 5.6151,-38.64291 2.9964,-20.85696 5.57897,-38.16466 5.73905,-38.46154 0.76579,-1.42019 1.98115,-2.14235 3.6055,-2.14235 1.43986,0 1.71203,0.12075 2.69854,1.19722 0.84233,0.91914 1.09735,1.47748 1.09796,2.40385 6.9e-4,1.05183 -10.33078,73.74613 -10.75094,75.64573 -0.15502,0.70089 -0.27205,0.72115 -4.16591,0.72115 -3.99064,0 -4.00576,-0.003 -3.8393,-0.72115 z"
         style="fill:#ffffff;fill-opacity:1;stroke:#ffffff;stroke-width:3.09630537;stroke-linecap:round;stroke-linejoin:round;stroke-miterlimit:4;stroke-dasharray:none;stroke-opacity:1;paint-order:normal" />
      <path
         transform="scale(0.26458333)"
         inkscape:connector-curvature="0"
         id="path5329"
         d="m -497.0305,895.10156 c -0.66106,-0.0691 -1.20192,-0.21001 -1.20192,-0.31303 0,-0.70917 19.41035,-68.33986 19.77252,-68.89261 0.25153,-0.38388 0.96771,-0.94015 1.59151,-1.23616 2.11701,-1.00459 4.58692,0.10479 5.26389,2.36432 0.3381,1.12848 -0.24073,3.32503 -9.0117,34.19755 -5.15516,18.14539 -9.44168,33.24402 -9.52559,33.55252 -0.13184,0.48465 -0.52874,0.55357 -2.91968,0.50702 -1.52191,-0.0296 -3.30797,-0.11046 -3.96903,-0.17961 z"
         style="fill:#ffffff;fill-opacity:1;stroke:#ffffff;stroke-width:3.09630537;stroke-linecap:round;stroke-linejoin:round;stroke-miterlimit:4;stroke-dasharray:none;stroke-opacity:1;paint-order:normal" />
    </g>
  </g>
  <g
     inkscape:groupmode="layer"
     id="layer6"
     inkscape:label="Facade"
     style="opacity:1"
     transform="translate(-28.973702,-71.981934)">
    <rect
       style="display:inline;opacity:1;fill:#ffffff;fill-opacity:1;stroke:#000000;stroke-width:2.7033987;stroke-linecap:round;stroke-miterlimit:4;stroke-dasharray:none;stroke-opacity:1"
       id="rect3756"
       width="119.73275"
       height="60.72242"
       x="36.191517"
       y="141.6241"
       ry="6.6434803"
       rx="6.875505" />
  </g>
  <g
     inkscape:groupmode="layer"
     id="layer5"
     inkscape:label="Poignee"
     transform="translate(-28.973702,-71.981934)">
    <rect
       style="display:inline;opacity:1;fill:#000000;fill-opacity:1;fill-rule:evenodd;stroke:#252525;stroke-width:0.23925079;stroke-linejoin:round;stroke-miterlimit:4;stroke-dasharray:none;stroke-opacity:1"
       id="rect3770"
       width="39.811237"
       height="14.49837"
       x="77.162514"
       y="166.09206"
       rx="2.292043"
       ry="1.8122988" />
  </g>
  <g
     inkscape:groupmode="layer"
     id="layer11"
     inkscape:label="OpusBeaute"
     transform="translate(-28.973702,-71.981934)">
    <text
       xml:space="preserve"
       style="font-style:normal;font-weight:normal;font-size:7.62959242px;line-height:1.25;font-family:sans-serif;letter-spacing:0px;word-spacing:0px;fill:#000000;fill-opacity:1;stroke:none;stroke-width:0.35763711"
       x="133.2951"
       y="201.20703"
       id="text5561"
       transform="scale(1.0173127,0.98298193)"><tspan
         sodipodi:role="line"
         id="tspan5559"
         x="133.2951"
         y="201.20703"
         style="font-size:7.62959242px;stroke-width:0.35763711">OB</tspan></text>
  </g>
</svg>
